<svg width="0" height="0" class="hidden">  

  <symbol viewBox="0 0 30 30" xmlns="http://www.w3.org/2000/svg" id="menu">
    <path stroke-width="2" stroke-linecap="round" stroke-miterlimit="10"
    d="M4 7h22M4 15h22M4 23h22"></path>
  </symbol>

  <symbol version="1.0" xmlns="http://www.w3.org/2000/svg" width="28.000000pt" height="49.000000pt" viewBox="0 0 28.000000 49.000000"
     preserveAspectRatio="xMidYMid meet" id="next">
    <g transform="translate(0.000000,49.000000) scale(0.100000,-0.100000)"
    fill="#000000" stroke="none">
    <path d="M30 453 c0 -4 44 -52 97 -105 l98 -98 -100 -100 c-54 -54 -96 -103
    -92 -107 4 -4 56 41 115 100 l107 107 -105 105 c-98 98 -120 116 -120 98z"/>
    </g>
  </symbol>

  <symbol version="1.0" xmlns="http://www.w3.org/2000/svg"  width="28.000000pt" height="49.000000pt" viewBox="0 0 28.000000 49.000000"
     preserveAspectRatio="xMidYMid meet" id="prev">
    <g transform="translate(0.000000,49.000000) scale(0.100000,-0.100000)"
    fill="#000000" stroke="none">
    <path d="M130 345 l-105 -105 107 -107 c59 -59 111 -104 115 -100 4 4 -38 53
    -92 107 l-100 100 98 98 c53 53 97 101 97 105 0 18 -22 0 -120 -98z"/>
    </g>
  </symbol>

  <symbol version="1.0" xmlns="http://www.w3.org/2000/svg" width="32.000000pt" height="18.000000pt" viewBox="0 0 32.000000 18.000000"
     preserveAspectRatio="xMidYMid meet" id="next-v">
    <g transform="translate(0.000000,18.000000) scale(0.100000,-0.100000)"
    fill="#000000" stroke="none">
    <path d="M30 154 c0 -5 29 -39 65 -74 l65 -65 73 75 c78 80 65 77 -21 -4 l-52
    -50 -65 64 c-36 35 -65 60 -65 54z"/>
    </g>
  </symbol>

  <symbol version="1.0" xmlns="http://www.w3.org/2000/svg" width="32.000000pt" height="18.000000pt" viewBox="0 0 32.000000 18.000000"
      preserveAspectRatio="xMidYMid meet" id="prev-v">
    <g transform="translate(0.000000,18.000000) scale(0.100000,-0.100000)"
    fill="#000000" stroke="none">
    <path d="M92 97 c-34 -34 -62 -67 -62 -72 0 -5 29 20 65 55 l65 64 52 -50 c85
    -80 99 -84 23 -6 -38 40 -72 72 -75 72 -3 0 -34 -28 -68 -63z"/>
    </g>
  </symbol>
  
</svg>

